<svg width="79" height="24" viewBox="0 0 79 24" fill="none" xmlns="http://www.w3.org/2000/svg">
<path d="M12.4945 3.97828C13.2757 2.99945 13.7932 1.69761 13.6663 0.385986C12.5238 0.444716 11.1471 1.13968 10.3366 2.09893C9.61404 2.92115 8.96959 4.2915 9.15511 5.55419C10.4245 5.68144 11.7036 4.92774 12.4945 3.97828V3.97828ZM15.3067 12.3277C15.2774 9.47929 17.6306 8.13829 17.738 8.0502C16.4198 6.08276 14.3498 5.85763 13.6468 5.81847C11.8013 5.7108 10.2487 6.86582 9.36017 6.86582C8.4716 6.86582 7.13387 5.8772 5.67897 5.88699C3.77491 5.91636 1.95872 7.00285 0.992046 8.7158C-0.999898 12.1417 0.533118 17.2316 2.46648 20.0017C3.41363 21.3818 4.53653 22.9186 6.01096 22.8501C7.41704 22.7913 7.97362 21.93 9.66286 21.93C11.3521 21.93 11.8599 22.8501 13.3441 22.8207C14.8868 22.7913 15.8633 21.4405 16.7714 20.0604C17.8455 18.4845 18.2849 16.9869 18.3141 16.889C18.2849 16.8499 15.336 15.7046 15.3067 12.3277V12.3277ZM47.5391 7.28671C43.8286 7.28671 41.5047 9.26394 41.3289 11.9851H44.2387C44.5121 10.6343 45.635 9.8023 47.4122 9.8023C49.2967 9.8023 50.4391 10.8105 50.4391 12.4843V13.6589L46.3185 13.8938C42.7448 14.0896 40.7138 15.7242 40.7138 18.3572C40.7138 21.0784 42.7838 22.9088 45.7131 22.9088C47.6856 22.9088 49.6092 21.8419 50.4782 20.1583H50.5758V22.6543H53.5052V12.2689C53.5149 9.23458 51.191 7.28671 47.5391 7.28671V7.28671ZM50.4391 17.0162C50.4391 18.9837 48.7499 20.4715 46.5919 20.4715C44.932 20.4715 43.8384 19.6199 43.8384 18.2789C43.8384 16.9869 44.8832 16.1647 46.7482 16.0374L50.4489 15.8123V17.0162H50.4391ZM75.8755 1.90317V10.0764H75.8364C74.9869 8.41236 73.2488 7.31608 71.0909 7.31608C67.3121 7.31608 64.7831 10.3504 64.7831 15.1075C64.7831 19.8646 67.3121 22.9186 71.1202 22.9186C73.3172 22.9186 75.0357 21.8027 75.9243 20.08L75.9731 20.1191V22.6641H79.0001V1.90317H75.8755ZM71.9306 20.2855C69.47 20.2855 67.9663 18.2887 67.9663 15.1075C67.9663 11.9361 69.5091 9.92955 71.9306 9.92955C74.3132 9.92955 75.8852 11.9851 75.8852 15.1075C75.895 18.2691 74.3132 20.2855 71.9306 20.2855ZM59.5298 10.1351H59.4712V7.48248H56.5419V22.6543H59.6665V13.6197C59.6665 11.4761 60.8187 10.1547 62.8107 10.1547C63.4063 10.1547 64.0117 10.233 64.2558 10.3211V7.43354C64.0312 7.3846 63.5918 7.31608 63.1427 7.31608C61.3753 7.31608 60.0278 8.36342 59.5298 10.1351V10.1351ZM30.4806 20.1974C26.692 20.1974 24.2802 17.1533 24.2802 12.2983C24.2802 7.51184 26.7213 4.41875 30.4611 4.41875C33.2733 4.41875 35.4605 6.21 36.0464 8.85284H39.2198C38.6828 4.546 35.148 1.59973 30.4611 1.59973C24.6903 1.59973 21.0091 5.73038 21.0091 12.2885C21.0091 18.8956 24.661 22.9871 30.4611 22.9871C35.2066 22.9871 38.4582 20.4519 39.2393 16.194H36.0464C35.4019 18.7194 33.3709 20.1974 30.4806 20.1974V20.1974Z" fill="black"/>
</svg>
